<svg xmlns="http://www.w3.org/2000/svg" xmlns:xlink="http://www.w3.org/1999/xlink" width="432" height="83.75" viewBox="0 0 432 83.75">
  <defs>
    <clipPath id="clip-path">
      <rect id="Rectangle_14097" data-name="Rectangle 14097" width="139.586" height="83.75" fill="none"/>
    </clipPath>
  </defs>
  <g id="Group_49918" data-name="Group 49918" transform="translate(-513 -2314)">
    <g id="Group_49917" data-name="Group 49917" transform="translate(513 2314)">
      <g id="Group_49917-2" data-name="Group 49917" transform="translate(0 0)" clip-path="url(#clip-path)">
        <path id="Path_74213" data-name="Path 74213" d="M2.585,83.75H49.192A2.606,2.606,0,0,0,51.8,81.145v-.084a2.6,2.6,0,0,0-2.605-2.585H5.44V44.627H40.082a2.6,2.6,0,0,0,2.585-2.606v-.083a2.6,2.6,0,0,0-2.585-2.605H5.44V5.211H46.607a2.606,2.606,0,0,0,0-5.211H2.585A2.6,2.6,0,0,0,0,2.585V81.166A2.6,2.6,0,0,0,2.585,83.75" transform="translate(0 0)" fill="#fff"/>
        <path id="Path_74214" data-name="Path 74214" d="M84.336,59.907a1.916,1.916,0,1,0,3.439-1.688,36.426,36.426,0,1,1,32.683,20.364,1.908,1.908,0,1,0-.021,3.815,39.9,39.9,0,0,0,17.905-4.169A40.331,40.331,0,1,0,84.336,59.907" transform="translate(-21.221 -0.461)" fill="#cd345c"/>
        <path id="Path_74215" data-name="Path 74215" d="M156.82,44.326A34.155,34.155,0,0,0,122.741,10.2a35.2,35.2,0,0,0-8.984,1.188,1.921,1.921,0,0,0,1,3.71,30.27,30.27,0,1,1-22.282,29.2,29.345,29.345,0,0,1,1.063-7.983,1.917,1.917,0,0,0-1.354-2.355A1.877,1.877,0,0,0,89.849,35.3a33.45,33.45,0,0,0-1.209,8.983,34.09,34.09,0,1,0,68.18.042" transform="translate(-23.461 -2.701)" fill="#db715d"/>
        <path id="Path_74216" data-name="Path 74216" d="M144.372,26.54a27.86,27.86,0,1,0-8.525,45.648,1.91,1.91,0,0,0-1.479-3.523A24.037,24.037,0,1,1,141.7,29.292a23.64,23.64,0,0,1,5.4,7.858,1.921,1.921,0,0,0,2.522,1.021,1.957,1.957,0,0,0,1.021-2.522,27.939,27.939,0,0,0-6.274-9.108" transform="translate(-25.708 -4.946)" fill="#eabe47"/>
        <path id="Path_74217" data-name="Path 74217" d="M107.8,58.318a1.892,1.892,0,0,0,2.543.876,1.918,1.918,0,0,0,.9-2.564,17.815,17.815,0,1,1,15.925,9.964,1.917,1.917,0,1,0,0,3.835A21.636,21.636,0,1,0,107.8,58.318" transform="translate(-27.948 -7.188)" fill="#5e9479"/>
      </g>
    </g>
    <text id="Bangalore" transform="translate(805 2372)" fill="#fff" font-size="59" font-family="Averta-Black" font-weight="800"><tspan x="-139" y="0">Bangalore</tspan></text>
  </g>
</svg>
