<svg xmlns="http://www.w3.org/2000/svg" xmlns:xlink="http://www.w3.org/1999/xlink" width="69.718" height="41.83" viewBox="0 0 69.718 41.83">
  <defs>
    <clipPath id="clip-path">
      <rect id="Rectangle_14096" data-name="Rectangle 14096" width="69.718" height="41.83" fill="none"/>
    </clipPath>
  </defs>
  <g id="Group_49916" data-name="Group 49916" transform="translate(0 0)">
    <g id="Group_49916-2" data-name="Group 49916" transform="translate(0 0)" clip-path="url(#clip-path)">
      <path id="Path_74208" data-name="Path 74208" d="M1.291,41.83H24.569a1.3,1.3,0,0,0,1.3-1.3v-.042a1.3,1.3,0,0,0-1.3-1.291H2.717V22.289h17.3a1.3,1.3,0,0,0,1.291-1.3v-.042a1.3,1.3,0,0,0-1.291-1.3H2.717V2.6H23.278a1.3,1.3,0,0,0,0-2.6H1.291A1.3,1.3,0,0,0,0,1.291V40.539A1.3,1.3,0,0,0,1.291,41.83" transform="translate(0 0)" fill="#fff"/>
      <path id="Path_74209" data-name="Path 74209" d="M82.253,30.793a.957.957,0,1,0,1.718-.843,18.193,18.193,0,1,1,16.324,10.171.953.953,0,1,0-.01,1.905,19.93,19.93,0,0,0,8.943-2.082,20.144,20.144,0,1,0-26.974-9.151" transform="translate(-50.73 -1.102)" fill="#cd345c"/>
      <path id="Path_74210" data-name="Path 74210" d="M122.693,27.247a17.059,17.059,0,0,0-17.021-17.042,17.579,17.579,0,0,0-4.487.594.96.96,0,0,0,.5,1.853A15.119,15.119,0,1,1,90.556,27.237a14.657,14.657,0,0,1,.531-3.987.957.957,0,0,0-.677-1.176.937.937,0,0,0-1.166.666,16.707,16.707,0,0,0-.6,4.487,17.027,17.027,0,1,0,34.053.021" transform="translate(-56.086 -6.457)" fill="#db715d"/>
      <path id="Path_74211" data-name="Path 74211" d="M120.726,22.609a13.915,13.915,0,1,0-4.258,22.8.954.954,0,0,0-.739-1.76,12.005,12.005,0,1,1,3.665-19.666,11.807,11.807,0,0,1,2.7,3.925.96.96,0,0,0,1.26.51.977.977,0,0,0,.51-1.26,13.954,13.954,0,0,0-3.133-4.549" transform="translate(-61.458 -11.824)" fill="#eabe47"/>
      <path id="Path_74212" data-name="Path 74212" d="M106.695,42.721a.945.945,0,0,0,1.27.437.958.958,0,0,0,.448-1.281,8.9,8.9,0,1,1,7.954,4.976.958.958,0,1,0,0,1.915,10.806,10.806,0,1,0-9.672-6.048" transform="translate(-66.812 -17.183)" fill="#5e9479"/>
    </g>
  </g>
</svg>
