<svg width="100%" height="100%" id="svg" viewBox="0 0 1440 490" xmlns="http://www.w3.org/2000/svg" class="transition duration-300 ease-in-out delay-150"><defs><linearGradient id="gradient" x1="63%" y1="2%" x2="37%" y2="98%"><stop offset="5%" stop-color="#1d007f"></stop><stop offset="95%" stop-color="#0c0c31"></stop></linearGradient></defs><path d="M 0,500 L 0,187 C 61.424705449189986,224.92341678939619 122.84941089837997,262.84683357879237 188,247 C 253.15058910162003,231.15316642120766 322.02706185567007,161.5360824742268 378,148 C 433.97293814432993,134.4639175257732 477.0423416789396,177.00883652430045 541,198 C 604.9576583210604,218.99116347569955 689.8035714285714,218.42857142857142 745,195 C 800.1964285714286,171.57142857142858 825.7433726067746,125.27687776141384 885,114 C 944.2566273932254,102.72312223858616 1037.2229381443299,126.46391752577318 1103,151 C 1168.7770618556701,175.53608247422682 1207.3648748159055,200.86745213549338 1259,207 C 1310.6351251840945,213.13254786450662 1375.3175625920471,200.0662739322533 1440,187 L 1440,500 L 0,500 Z" stroke="none" stroke-width="0" fill="url(#gradient)" fill-opacity="1" class="transition-all duration-300 ease-in-out delay-150 path-0"></path></svg>