<svg xmlns="http://www.w3.org/2000/svg" width="404.944" height="105.727" viewBox="0 0 404.944 105.727">
  <g id="Group_50053" data-name="Group 50053" transform="translate(-866 -1987)">
    <path id="Path_74226" data-name="Path 74226" d="M55.861,102.417H5.945V63.807H45.462a2.972,2.972,0,1,0,0-5.945H5.945V19.1H52.9a2.972,2.972,0,1,0,0-5.945H2.972A2.972,2.972,0,0,0,0,16.125v89.264a2.972,2.972,0,0,0,2.972,2.972H55.861a2.972,2.972,0,1,0,0-5.945" transform="translate(866 1979.432)" fill="#fff"/>
    <path id="Path_74227" data-name="Path 74227" d="M194.544,105.727c-1.192,0-2.4-.04-3.581-.119s-2.357-.2-3.519-.353-2.313-.349-3.448-.579-2.26-.5-3.368-.8-2.2-.638-3.281-1.008-2.142-.775-3.186-1.211-2.075-.907-3.084-1.406-2-1.034-2.973-1.595c-1-.576-1.988-1.194-2.946-1.835s-1.9-1.317-2.812-2.018-1.808-1.437-2.67-2.193-1.711-1.552-2.519-2.361-1.607-1.66-2.361-2.519-1.5-1.763-2.194-2.67-1.381-1.861-2.018-2.812-1.26-1.951-1.835-2.946c-.56-.968-1.1-1.969-1.595-2.973s-.973-2.047-1.406-3.084-.845-2.118-1.212-3.187-.709-2.181-1.008-3.281-.569-2.24-.8-3.369-.424-2.294-.579-3.447-.274-2.346-.353-3.519-.119-2.389-.119-3.581.04-2.4.119-3.581.2-2.357.353-3.518.349-2.313.579-3.448.5-2.255.8-3.367.638-2.2,1.008-3.282.777-2.146,1.212-3.187.908-2.077,1.407-3.084,1.033-2,1.594-2.974c.575-.993,1.192-1.984,1.835-2.945s1.315-1.9,2.018-2.812S154.037,18.86,154.8,18s1.549-1.707,2.361-2.519,1.656-1.6,2.519-2.361,1.761-1.495,2.67-2.194,1.858-1.38,2.812-2.018,1.949-1.259,2.945-1.835c.97-.561,1.971-1.1,2.973-1.594s2.047-.974,3.084-1.407,2.116-.844,3.187-1.211,2.182-.709,3.281-1.008,2.243-.57,3.369-.8,2.3-.425,3.447-.579S189.789.2,190.963.119a54.052,54.052,0,0,1,7.163,0c1.173.078,2.356.2,3.519.353s2.311.349,3.448.579,2.259.5,3.368.8,2.2.638,3.282,1.008,2.14.774,3.186,1.211a2.163,2.163,0,0,1-1.667,3.991c-.96-.4-1.944-.775-2.924-1.111s-2-.651-3.011-.925-2.058-.523-3.091-.732-2.108-.39-3.165-.532-2.155-.252-3.232-.324a49.684,49.684,0,0,0-6.586,0c-1.079.072-2.166.181-3.232.324s-2.122.321-3.165.532-2.073.455-3.091.732-2.022.586-3.011.925-1.966.711-2.924,1.112-1.9.832-2.831,1.291-1.839.949-2.73,1.464c-.915.529-1.825,1.1-2.7,1.684s-1.745,1.21-2.582,1.854-1.661,1.32-2.453,2.015-1.571,1.426-2.313,2.168-1.475,1.525-2.169,2.314-1.375,1.619-2.014,2.452-1.269,1.709-1.854,2.582-1.157,1.793-1.684,2.7c-.515.891-1.007,1.809-1.464,2.73s-.893,1.876-1.291,2.831-.773,1.939-1.112,2.925-.651,2-.925,3.01-.523,2.061-.731,3.091-.39,2.106-.532,3.165-.252,2.154-.324,3.232-.11,2.2-.11,3.293.037,2.2.11,3.293.181,2.165.324,3.232.321,2.123.532,3.164.455,2.076.731,3.091.586,2.023.925,3.012.71,1.964,1.111,2.924.832,1.9,1.291,2.831.949,1.84,1.464,2.729c.528.914,1.094,1.824,1.684,2.705s1.208,1.742,1.854,2.583,1.318,1.658,2.014,2.452,1.421,1.567,2.168,2.314,1.521,1.472,2.314,2.168,1.617,1.372,2.452,2.015,1.706,1.267,2.582,1.853,1.79,1.155,2.7,1.685c.892.516,1.81,1.008,2.73,1.464s1.878.893,2.831,1.291,1.941.774,2.924,1.111,2,.651,3.011.925,2.057.523,3.091.732,2.107.389,3.165.532,2.154.252,3.232.324a49.759,49.759,0,0,0,6.586,0c1.077-.072,2.165-.181,3.232-.324s2.123-.321,3.165-.532,2.074-.455,3.091-.732,2.022-.586,3.011-.925,1.964-.71,2.924-1.112,1.9-.832,2.83-1.291,1.838-.948,2.73-1.464c.915-.529,1.825-1.1,2.7-1.684s1.745-1.21,2.583-1.854,1.658-1.318,2.453-2.015,1.571-1.425,2.313-2.168,1.473-1.522,2.168-2.314,1.372-1.615,2.015-2.452,1.266-1.7,1.854-2.582,1.156-1.792,1.684-2.7c.515-.89,1.007-1.808,1.465-2.73s.893-1.878,1.291-2.83.775-1.944,1.111-2.924.651-2,.925-3.012.523-2.06.731-3.091.39-2.107.532-3.165.252-2.155.324-3.232.11-2.2.11-3.293-.037-2.2-.11-3.293-.181-2.165-.324-3.232-.321-2.124-.532-3.164-.454-2.073-.732-3.092-.585-2.02-.925-3.011-.713-1.969-1.111-2.924-.833-1.907-1.291-2.83a2.163,2.163,0,1,1,3.875-1.921c.5,1.007.973,2.044,1.407,3.084s.842,2.112,1.211,3.186.71,2.184,1.008,3.282.57,2.243.8,3.368.424,2.294.579,3.448.274,2.345.353,3.518.119,2.389.119,3.581-.04,2.4-.119,3.581-.2,2.357-.353,3.519-.349,2.313-.579,3.448-.5,2.255-.8,3.367-.638,2.2-1.008,3.282-.775,2.141-1.212,3.187-.907,2.074-1.406,3.083-1.035,2.006-1.595,2.974c-.575.994-1.192,1.985-1.835,2.945s-1.318,1.9-2.018,2.812-1.438,1.809-2.194,2.67-1.551,1.71-2.361,2.519-1.656,1.6-2.519,2.36-1.764,1.5-2.671,2.194-1.858,1.38-2.812,2.018-1.949,1.259-2.946,1.835c-.971.561-1.971,1.1-2.973,1.594s-2.046.973-3.084,1.407-2.119.845-3.187,1.212-2.182.709-3.282,1.008-2.241.569-3.368.8-2.294.424-3.447.579-2.347.275-3.519.353-2.389.119-3.582.119" transform="translate(784.482 1987)" fill="#fff"/>
    <path id="Path_74228" data-name="Path 74228" d="M204.13,108.238a2.163,2.163,0,1,1,0-4.325c.936,0,1.883-.031,2.814-.093s1.849-.155,2.761-.277,1.812-.273,2.7-.454,1.773-.389,2.641-.625,1.729-.5,2.572-.79,1.679-.608,2.5-.949,1.627-.71,2.417-1.1,1.572-.811,2.332-1.251c.782-.452,1.559-.936,2.311-1.439s1.491-1.034,2.206-1.583,1.418-1.127,2.094-1.721,1.342-1.217,1.978-1.853,1.258-1.3,1.852-1.977,1.172-1.38,1.721-2.094,1.082-1.457,1.583-2.206.984-1.525,1.44-2.311c.439-.759.859-1.544,1.249-2.331s.761-1.6,1.1-2.418.663-1.663.949-2.5.555-1.708.791-2.573.445-1.754.625-2.64.332-1.8.454-2.7.216-1.841.277-2.761.094-1.876.094-2.814-.032-1.884-.094-2.813-.154-1.849-.277-2.761-.273-1.812-.454-2.7-.388-1.769-.625-2.641-.5-1.73-.79-2.572-.608-1.68-.949-2.5-.711-1.626-1.1-2.417-.811-1.572-1.25-2.332c-.455-.786-.938-1.563-1.439-2.31s-1.034-1.491-1.583-2.206-1.128-1.419-1.721-2.095-1.217-1.341-1.853-1.977-1.3-1.257-1.977-1.852S230.1,30.1,229.385,29.55s-1.459-1.083-2.206-1.584-1.529-.987-2.31-1.439c-.762-.44-1.547-.861-2.332-1.25s-1.6-.763-2.418-1.1-1.658-.661-2.5-.949-1.711-.556-2.572-.79-1.757-.446-2.641-.625-1.8-.333-2.7-.454-1.841-.215-2.761-.277a42.466,42.466,0,0,0-5.627,0c-.92.061-1.849.155-2.761.277s-1.813.274-2.7.454-1.773.389-2.641.625-1.727.5-2.572.79-1.679.607-2.5.949-1.627.711-2.417,1.1-1.57.81-2.332,1.251c-.781.451-1.559.935-2.31,1.439s-1.49,1.033-2.206,1.583-1.418,1.127-2.094,1.721-1.344,1.219-1.977,1.852-1.259,1.3-1.853,1.977-1.172,1.381-1.721,2.095-1.082,1.457-1.583,2.206-.987,1.529-1.439,2.31c-.439.76-.859,1.544-1.25,2.332s-.761,1.6-1.1,2.418-.661,1.658-.949,2.5-.555,1.707-.79,2.572-.447,1.76-.625,2.64-.332,1.8-.454,2.7-.215,1.84-.277,2.761-.094,1.877-.094,2.813.032,1.882.094,2.814.155,1.85.277,2.761.274,1.817.454,2.7.389,1.77.625,2.642.5,1.73.79,2.572.608,1.68.949,2.5.713,1.631,1.1,2.417a2.163,2.163,0,1,1-3.875,1.922c-.431-.869-.842-1.768-1.219-2.672s-.731-1.832-1.049-2.76-.614-1.887-.873-2.842-.494-1.945-.691-2.919-.367-1.983-.5-2.986-.238-2.03-.306-3.047-.1-2.071-.1-3.1.034-2.075.1-3.1.171-2.043.306-3.048.3-2.007.5-2.986.428-1.954.69-2.916.554-1.913.874-2.843.671-1.856,1.049-2.76.788-1.8,1.219-2.672.9-1.736,1.38-2.575c.5-.863,1.033-1.721,1.589-2.552s1.142-1.646,1.748-2.436,1.245-1.566,1.9-2.313,1.344-1.481,2.045-2.182,1.433-1.387,2.181-2.045,1.526-1.3,2.313-1.9,1.609-1.2,2.435-1.748,1.689-1.09,2.552-1.589c.842-.486,1.708-.951,2.576-1.381s1.772-.842,2.671-1.219,1.833-.731,2.761-1.049,1.889-.614,2.842-.873,1.941-.493,2.918-.69,1.988-.368,2.986-.5,2.033-.238,3.048-.305a46.821,46.821,0,0,1,6.2,0c1.015.068,2.04.17,3.047.305s2,.3,2.987.5,1.958.43,2.918.69,1.908.553,2.842.873,1.857.671,2.76,1.049,1.8.786,2.672,1.219,1.734.895,2.575,1.381c.863.5,1.721,1.034,2.552,1.589s1.645,1.141,2.436,1.749,1.565,1.244,2.313,1.9,1.481,1.344,2.182,2.045,1.389,1.436,2.044,2.182,1.295,1.524,1.9,2.313,1.195,1.609,1.748,2.436,1.087,1.684,1.589,2.551c.486.84.95,1.706,1.381,2.576s.843,1.772,1.218,2.671.731,1.832,1.049,2.76.614,1.887.873,2.842.494,1.946.691,2.919.368,1.989.5,2.986.238,2.033.306,3.048.1,2.068.1,3.1-.035,2.077-.1,3.1-.17,2.04-.306,3.047-.3,2.007-.5,2.986-.43,1.961-.69,2.918-.554,1.912-.873,2.842-.669,1.851-1.049,2.76-.787,1.8-1.219,2.672-.9,1.735-1.38,2.575c-.5.868-1.037,1.727-1.589,2.552s-1.142,1.646-1.748,2.435-1.245,1.567-1.9,2.313-1.343,1.48-2.044,2.182-1.436,1.389-2.183,2.045-1.526,1.3-2.313,1.9-1.608,1.195-2.435,1.748-1.689,1.09-2.552,1.589c-.84.485-1.706.95-2.576,1.381s-1.772.843-2.671,1.219-1.832.73-2.76,1.049-1.888.614-2.842.873-1.942.493-2.918.69-1.99.368-2.987.5-2.031.238-3.047.306-2.07.1-3.1.1" transform="translate(774.897 1977.414)" fill="#fff"/>
    <path id="Path_74229" data-name="Path 74229" d="M213.716,110.75c-.873,0-1.755-.029-2.622-.087s-1.727-.144-2.577-.258-1.692-.256-2.524-.424-1.655-.363-2.467-.584-1.613-.467-2.4-.738-1.571-.568-2.334-.887-1.518-.663-2.259-1.03-1.466-.756-2.178-1.167c-.735-.426-1.462-.878-2.158-1.344s-1.393-.966-2.059-1.478-1.321-1.05-1.955-1.606-1.253-1.136-1.845-1.728-1.176-1.215-1.729-1.845-1.094-1.288-1.606-1.955-1.007-1.356-1.477-2.058-.924-1.431-1.344-2.158c-.409-.707-.8-1.44-1.167-2.178s-.715-1.5-1.03-2.259-.617-1.546-.887-2.333-.52-1.6-.738-2.4-.418-1.644-.584-2.467-.312-1.686-.424-2.526-.2-1.716-.259-2.576S175,72.905,175,72.035s.029-1.752.087-2.621.145-1.727.259-2.578.254-1.688.424-2.524.363-1.654.584-2.467a2.163,2.163,0,0,1,4.174,1.134c-.2.722-.371,1.459-.518,2.19s-.277,1.5-.377,2.242-.179,1.527-.23,2.291-.077,1.558-.077,2.334.026,1.561.077,2.335.128,1.533.23,2.289.226,1.5.377,2.243.322,1.467.518,2.19.414,1.431.655,2.133.5,1.4.787,2.071.589,1.346.915,2.006.673,1.305,1.037,1.933c.374.646.775,1.291,1.194,1.917s.859,1.239,1.313,1.828.935,1.177,1.428,1.738,1.009,1.112,1.537,1.64,1.078,1.043,1.64,1.536,1.148.975,1.737,1.427,1.208.9,1.83,1.314,1.264.816,1.917,1.194c.631.365,1.282.714,1.933,1.037s1.332.634,2,.915,1.375.548,2.071.787,1.419.462,2.133.656,1.457.37,2.19.518,1.494.276,2.242.376,1.526.178,2.29.23a35.222,35.222,0,0,0,4.667,0c.765-.051,1.535-.128,2.29-.23s1.5-.227,2.243-.376,1.469-.323,2.19-.518,1.432-.415,2.134-.656,1.394-.5,2.071-.787,1.35-.59,2-.914,1.3-.672,1.935-1.037c.649-.375,1.294-.777,1.916-1.193s1.235-.856,1.83-1.313,1.177-.935,1.736-1.427,1.115-1.011,1.64-1.537,1.045-1.08,1.536-1.64.973-1.145,1.427-1.737.9-1.21,1.314-1.83.819-1.27,1.193-1.916c.363-.628.712-1.279,1.037-1.934s.634-1.333.914-2,.549-1.378.787-2.071.462-1.42.655-2.133.369-1.454.518-2.19.276-1.49.377-2.243.179-1.528.229-2.29.078-1.557.078-2.334-.026-1.562-.078-2.334-.128-1.534-.23-2.29-.226-1.5-.377-2.243-.322-1.468-.518-2.19-.414-1.431-.655-2.133-.5-1.4-.787-2.071-.589-1.346-.915-2.006-.672-1.3-1.037-1.934-.775-1.29-1.193-1.916-.857-1.235-1.313-1.829-.935-1.176-1.427-1.737-1.009-1.112-1.536-1.64-1.076-1.042-1.64-1.537-1.143-.971-1.737-1.427-1.211-.9-1.829-1.313-1.268-.819-1.916-1.194c-.632-.365-1.283-.714-1.934-1.037s-1.329-.632-2-.914-1.373-.548-2.072-.788-1.417-.461-2.133-.655-1.457-.371-2.189-.518-1.492-.276-2.243-.377-1.527-.178-2.291-.229a35.228,35.228,0,0,0-4.668,0c-.763.051-1.533.128-2.29.229s-1.5.228-2.242.377-1.469.322-2.19.518a2.163,2.163,0,0,1-1.135-4.174c.812-.221,1.643-.417,2.468-.584s1.679-.31,2.524-.424,1.718-.2,2.576-.259a39.728,39.728,0,0,1,5.244,0c.859.057,1.725.144,2.577.259s1.694.256,2.525.424,1.655.363,2.467.584,1.614.468,2.4.738,1.573.569,2.335.887,1.521.665,2.259,1.03,1.465.756,2.177,1.167c.73.422,1.456.874,2.158,1.344s1.388.963,2.059,1.478,1.327,1.055,1.956,1.607,1.254,1.138,1.844,1.728,1.176,1.215,1.729,1.845,1.094,1.289,1.606,1.955,1.011,1.361,1.478,2.059.923,1.431,1.344,2.158c.411.712.8,1.444,1.168,2.177s.714,1.5,1.03,2.259.616,1.546.887,2.333.52,1.6.738,2.4.417,1.643.584,2.467.312,1.686.424,2.525.2,1.716.259,2.576.087,1.749.087,2.622-.029,1.755-.087,2.622-.144,1.724-.259,2.576-.257,1.7-.425,2.527-.363,1.659-.584,2.467-.466,1.612-.738,2.4-.567,1.567-.888,2.334-.662,1.516-1.03,2.258-.759,1.471-1.168,2.178c-.42.727-.872,1.453-1.343,2.157s-.965,1.392-1.478,2.059-1.053,1.324-1.607,1.956-1.134,1.25-1.728,1.844-1.213,1.174-1.845,1.729-1.288,1.093-1.955,1.606-1.363,1.011-2.059,1.478-1.427.921-2.158,1.344c-.712.411-1.445.8-2.178,1.168s-1.5.712-2.259,1.03-1.548.617-2.333.887-1.6.52-2.4.738-1.642.417-2.467.584-1.682.311-2.525.424-1.716.2-2.576.258-1.749.087-2.623.087" transform="translate(765.311 1967.828)" fill="#fff"/>
    <path id="Path_74230" data-name="Path 74230" d="M223.3,113.26c-.713,0-1.434-.024-2.143-.071s-1.41-.118-2.1-.211-1.383-.209-2.064-.346-1.351-.3-2.016-.477-1.32-.382-1.964-.6-1.284-.465-1.908-.725-1.24-.542-1.846-.842-1.2-.618-1.78-.954c-.6-.345-1.19-.714-1.763-1.1s-1.137-.788-1.683-1.208-1.083-.86-1.6-1.312-1.023-.927-1.507-1.412-.962-.994-1.413-1.509-.9-1.053-1.313-1.6-.825-1.11-1.208-1.682-.751-1.162-1.1-1.764c-.335-.578-.656-1.178-.955-1.78s-.583-1.225-.842-1.846-.507-1.272-.725-1.908-.423-1.3-.6-1.962-.34-1.34-.477-2.017-.254-1.372-.347-2.062-.164-1.408-.211-2.107-.071-1.43-.071-2.142.024-1.433.071-2.142.118-1.408.211-2.105.209-1.386.347-2.064.3-1.356.477-2.017.383-1.323.6-1.964.462-1.278.725-1.907.542-1.242.842-1.846.62-1.2.955-1.781c.347-.6.717-1.194,1.1-1.763s.789-1.138,1.208-1.682.859-1.082,1.313-1.6.926-1.021,1.412-1.507.993-.961,1.507-1.413,1.053-.893,1.6-1.313,1.111-.825,1.683-1.208,1.166-.753,1.763-1.1,1.183-.657,1.781-.954,1.227-.583,1.846-.842,1.264-.5,1.907-.725,1.306-.425,1.964-.6,1.343-.341,2.017-.477,1.375-.255,2.064-.347,1.4-.164,2.105-.211a32.352,32.352,0,0,1,4.285,0c.7.047,1.41.118,2.106.211s1.383.209,2.063.347,1.352.3,2.016.477,1.321.382,1.965.6,1.284.464,1.907.725,1.242.543,1.846.842,1.2.617,1.78.954,1.191.715,1.764,1.1,1.137.788,1.683,1.207,1.081.859,1.6,1.313,1.023.928,1.508,1.414.96.991,1.412,1.507.895,1.054,1.313,1.6.828,1.115,1.208,1.683.753,1.166,1.1,1.763c.336.581.657,1.18.954,1.78s.583,1.226.842,1.846a2.163,2.163,0,1,1-3.991,1.668c-.224-.535-.468-1.072-.727-1.593s-.534-1.035-.823-1.536-.617-1.027-.948-1.521-.679-.98-1.043-1.454-.743-.934-1.134-1.38-.8-.883-1.22-1.3-.857-.829-1.3-1.22-.911-.774-1.38-1.135-.961-.713-1.454-1.043-1.007-.65-1.522-.948-1.019-.567-1.535-.823-1.057-.5-1.593-.727-1.091-.435-1.645-.625-1.126-.366-1.694-.521-1.158-.295-1.739-.412-1.186-.22-1.78-.3-1.213-.142-1.82-.182a27.854,27.854,0,0,0-3.708,0c-.607.04-1.218.1-1.819.182s-1.194.18-1.781.3-1.166.256-1.74.412-1.138.33-1.694.52-1.107.4-1.645.625-1.07.468-1.593.727-1.033.533-1.536.823-1.027.617-1.521.948-.983.682-1.453,1.043-.936.744-1.38,1.135-.883.8-1.3,1.22-.83.857-1.22,1.3-.773.91-1.134,1.38-.713.959-1.043,1.454-.648,1-.948,1.522c-.289.5-.566,1.017-.823,1.536s-.5,1.057-.727,1.592-.437,1.1-.625,1.644-.366,1.124-.521,1.7-.293,1.153-.411,1.738-.22,1.186-.3,1.782-.142,1.214-.182,1.818-.062,1.238-.062,1.855.021,1.241.062,1.854.1,1.216.182,1.819.181,1.195.3,1.781.257,1.17.411,1.739.33,1.141.52,1.693.4,1.1.626,1.645.468,1.071.727,1.592.534,1.035.823,1.535c.3.519.619,1.031.948,1.521s.682.984,1.043,1.454.742.935,1.134,1.38.8.883,1.221,1.3.857.829,1.3,1.22.909.772,1.38,1.134.961.713,1.453,1.043,1.007.65,1.522.947,1.018.567,1.536.824,1.058.5,1.592.726,1.093.436,1.645.626,1.126.366,1.695.52,1.158.294,1.738.411,1.186.22,1.781.3,1.213.142,1.819.182a27.846,27.846,0,0,0,3.708,0c.607-.04,1.219-.1,1.82-.182s1.193-.18,1.78-.3,1.166-.256,1.739-.412,1.138-.33,1.694-.52,1.106-.4,1.645-.625a2.163,2.163,0,0,1,1.668,3.991c-.625.261-1.267.505-1.908.725s-1.3.424-1.964.6-1.343.341-2.017.477-1.374.254-2.063.346-1.4.164-2.106.211-1.429.071-2.143.071" transform="translate(755.725 1958.243)" fill="#fff"/>
    <path id="Path_74231" data-name="Path 74231" d="M232.886,115.772a2.163,2.163,0,1,1,0-4.325c.458,0,.921-.015,1.375-.046s.9-.075,1.349-.135.884-.134,1.319-.222.864-.189,1.289-.305.843-.244,1.254-.385.82-.3,1.219-.463.794-.347,1.18-.538.766-.4,1.138-.61.761-.457,1.129-.7.727-.5,1.075-.772.693-.55,1.023-.84.656-.595.966-.9.612-.633.9-.966.572-.674.84-1.022.528-.711.773-1.077.483-.748.7-1.128.419-.752.61-1.138.373-.785.538-1.179.323-.81.463-1.219.271-.831.386-1.256.218-.857.305-1.289.163-.882.221-1.319.105-.9.135-1.349.046-.916.046-1.374-.015-.921-.046-1.375-.076-.9-.135-1.349-.133-.882-.221-1.321-.19-.863-.305-1.287-.245-.846-.385-1.254-.3-.82-.463-1.22-.346-.791-.539-1.18-.4-.768-.61-1.138-.456-.759-.7-1.128-.5-.727-.773-1.076-.55-.692-.84-1.023-.6-.656-.9-.965-.635-.614-.966-.9-.673-.572-1.022-.84-.713-.529-1.077-.773-.747-.482-1.128-.7-.754-.42-1.138-.61-.783-.372-1.18-.538-.809-.323-1.219-.463-.834-.271-1.255-.386-.859-.218-1.288-.3-.879-.162-1.32-.222-.9-.1-1.348-.135a20.77,20.77,0,0,0-2.75,0c-.449.03-.9.076-1.349.135s-.884.134-1.32.222-.863.19-1.288.305-.843.244-1.254.385-.82.3-1.219.463-.794.347-1.18.538-.766.4-1.138.61-.761.457-1.128.7-.727.5-1.076.773-.7.552-1.023.84-.656.595-.966.9-.612.633-.9.966-.572.675-.84,1.023-.528.711-.772,1.076-.484.749-.7,1.128-.419.752-.611,1.14-.373.785-.538,1.179-.323.81-.463,1.219-.272.836-.386,1.256-.218.857-.305,1.289-.163.882-.221,1.319-.105.9-.135,1.349-.046.922-.046,1.375.015.916.046,1.376.076.9.135,1.347.133.882.221,1.321.19.863.305,1.287.244.842.386,1.256.3.818.463,1.219.346.792.539,1.18a2.163,2.163,0,0,1-3.877,1.919c-.234-.472-.454-.954-.654-1.433s-.392-.985-.563-1.482-.33-1.015-.468-1.524-.265-1.042-.371-1.566-.2-1.072-.269-1.6-.128-1.091-.164-1.634-.055-1.116-.055-1.663.019-1.107.055-1.662.092-1.095.164-1.636.161-1.07.268-1.6.231-1.053.371-1.567.3-1.022.468-1.524.36-.995.563-1.482.42-.961.653-1.433.483-.936.742-1.383.552-.921.852-1.369.611-.882.938-1.306.667-.839,1.019-1.24.723-.8,1.1-1.171.769-.745,1.17-1.1.815-.692,1.24-1.019.865-.642,1.308-.938.9-.584,1.367-.852.916-.51,1.382-.741.951-.452,1.434-.654.984-.392,1.482-.563,1.012-.329,1.524-.468,1.043-.265,1.566-.371,1.068-.2,1.6-.269,1.091-.128,1.635-.164a25.114,25.114,0,0,1,3.325,0c.544.036,1.094.091,1.634.164s1.075.162,1.6.269,1.049.23,1.566.371,1.025.3,1.525.469,1,.36,1.482.563.964.421,1.433.654.931.48,1.382.741.923.554,1.368.852.884.613,1.307.938.839.667,1.24,1.019.794.721,1.17,1.1.743.767,1.1,1.17.7.819,1.02,1.241.64.862.938,1.307.586.908.852,1.369.509.914.741,1.382.454.955.654,1.434.392.985.563,1.482.328,1.009.468,1.524.265,1.042.371,1.566.2,1.072.269,1.6.128,1.091.164,1.634.055,1.109.055,1.663-.019,1.113-.055,1.663-.092,1.093-.164,1.634-.161,1.069-.269,1.6-.231,1.053-.371,1.567-.3,1.029-.469,1.526-.36.993-.563,1.48-.42.961-.653,1.433-.482.934-.741,1.382-.553.921-.852,1.368-.614.885-.939,1.307-.666.839-1.019,1.24-.724.8-1.1,1.171-.769.745-1.17,1.1-.819.7-1.242,1.02-.862.641-1.305.938-.907.585-1.369.852-.916.51-1.382.741-.952.453-1.434.654-.983.392-1.482.563-1.013.329-1.525.468-1.044.265-1.566.371-1.067.2-1.6.269-1.091.127-1.635.164-1.109.055-1.663.055" transform="translate(746.14 1948.657)" fill="#fff"/>
    <path id="Path_74232" data-name="Path 74232" d="M478.739,106.611c0,5.593-3.762,9.652-11.534,9.652h-13.91V81.117h12.227c7.227,0,11.435,2.821,11.435,8.564a8.241,8.241,0,0,1-5.2,7.97V97.7a8.651,8.651,0,0,1,6.979,8.911m-19.454-10.94h5.693c2.97,0,5.891-1.337,5.891-4.653,0-2.772-1.881-4.6-6.485-4.555h-5.1Zm13.217,10.3c0-3.119-2.376-5.148-6.98-5.148h-6.238v10.1h6.139c4.207-.049,7.079-1.633,7.079-4.95" transform="translate(605.191 1940.328)" fill="#fff"/>
    <path id="Path_74233" data-name="Path 74233" d="M543.793,106.528v24.157h-5.3v-3.217h-.1a9.136,9.136,0,0,1-7.673,3.613c-6.683,0-11.683-4.9-11.683-12.375,0-7.277,5-12.524,11.633-12.524a9.451,9.451,0,0,1,7.475,3.267h.1v-2.921Zm-5.3,12.227c0-4.307-2.921-7.574-6.881-7.574-3.861,0-6.93,2.921-6.93,7.574,0,4.257,2.821,7.277,6.93,7.277a6.9,6.9,0,0,0,6.881-7.277" transform="translate(567.364 1925.907)" fill="#fff"/>
    <path id="Path_74234" data-name="Path 74234" d="M608.876,116.477v14.207h-5.544V117.912c0-5.1-1.93-6.733-5.246-6.733-3.762,0-6.238,2.624-6.238,7.376v12.128H586.3V106.527h5.544v3.367h.05a10.488,10.488,0,0,1,8.118-3.713c5.3,0,8.861,3.02,8.861,10.3" transform="translate(528.664 1925.908)" fill="#fff"/>
    <path id="Path_74235" data-name="Path 74235" d="M669.007,106.46v21.682c0,7.327-3.366,12.624-12.326,12.624a19.436,19.436,0,0,1-9.851-2.524l1.337-4.852c2.623,1.386,4.752,2.376,8.217,2.376,4.752,0,7.178-2.723,7.178-5.94v-2.574h-.049a10.028,10.028,0,0,1-7.376,2.97c-6.732,0-11.782-4.753-11.782-11.93,0-7.079,4.8-12.227,11.485-12.227a10.545,10.545,0,0,1,7.525,2.97h.1V106.46Zm-5.3,11.584a6.858,6.858,0,1,0-6.831,7.078,6.7,6.7,0,0,0,6.831-7.078" transform="translate(495.263 1925.975)" fill="#fff"/>
    <path id="Path_74236" data-name="Path 74236" d="M735.319,106.528v24.157h-5.3v-3.217h-.1a9.136,9.136,0,0,1-7.673,3.613c-6.683,0-11.682-4.9-11.682-12.375,0-7.277,5-12.524,11.633-12.524a9.452,9.452,0,0,1,7.475,3.267h.1v-2.921Zm-5.3,12.227c0-4.307-2.921-7.574-6.881-7.574-3.861,0-6.93,2.921-6.93,7.574,0,4.257,2.821,7.277,6.93,7.277a6.9,6.9,0,0,0,6.881-7.277" transform="translate(457.166 1925.907)" fill="#fff"/>
    <rect id="Rectangle_14099" data-name="Rectangle 14099" width="5.545" height="36.434" transform="translate(1196.642 2020.158)" fill="#fff"/>
    <path id="Path_74237" data-name="Path 74237" d="M798.694,118.655c0-7.128,5.049-12.475,12.672-12.475,7.426,0,12.673,5.05,12.673,12.475,0,7.326-5.247,12.425-12.673,12.425-7.623,0-12.672-5.346-12.672-12.425m19.7,0c0-4.455-3.07-7.475-7.03-7.475-4.207,0-7.029,3.268-7.029,7.475,0,4.108,2.871,7.376,7.029,7.376a7.019,7.019,0,0,0,7.03-7.376" transform="translate(406.462 1925.908)" fill="#fff"/>
    <path id="Path_74238" data-name="Path 74238" d="M878.368,106.18v6.188c-.644-.049-1.287-.1-1.683-.1-4.208,0-6.584,3.019-6.584,6.979v11.435h-5.544V106.527H870.1v3.663h.05a9.29,9.29,0,0,1,7.525-4.01Z" transform="translate(368.567 1925.908)" fill="#fff"/>
    <path id="Path_74239" data-name="Path 74239" d="M921.613,120.537H903.99a6.665,6.665,0,0,0,6.881,5.495,7.523,7.523,0,0,0,6.039-2.822l3.861,3.317c-2.029,2.623-5.445,4.554-10.2,4.554-7.029,0-12.326-4.95-12.326-12.474,0-7.426,5.049-12.425,11.781-12.425,7.128,0,11.732,5.1,11.732,12.128a20.516,20.516,0,0,1-.149,2.228m-17.524-4.455h12.078c-.693-2.921-2.673-4.9-5.841-4.9a6.11,6.11,0,0,0-6.237,4.9" transform="translate(349.182 1925.907)" fill="#fff"/>
    <rect id="Rectangle_14100" data-name="Rectangle 14100" width="404.944" height="105.727" transform="translate(866 1987)" fill="none"/>
  </g>
</svg>
